<svg width="46" height="46" viewBox="0 0 46 46" fill="none" xmlns="http://www.w3.org/2000/svg">
<g id="Group">
<path id="Vector" fill-rule="evenodd" clip-rule="evenodd" d="M15.8949 24.3551C15.5356 23.9957 15.3337 23.5082 15.3337 23C15.3337 22.4918 15.5356 22.0043 15.8949 21.6449L26.7375 10.8023C26.9143 10.6193 27.1258 10.4733 27.3596 10.3728C27.5935 10.2724 27.845 10.2195 28.0995 10.2173C28.354 10.2151 28.6064 10.2635 28.8419 10.3599C29.0775 10.4563 29.2915 10.5986 29.4714 10.7786C29.6514 10.9585 29.7937 11.1725 29.8901 11.4081C29.9865 11.6436 30.0349 11.896 30.0327 12.1505C30.0305 12.405 29.9776 12.6565 29.8772 12.8904C29.7767 13.1242 29.6307 13.3357 29.4477 13.5125L19.9602 23L29.4477 32.4875C29.7968 32.849 29.99 33.3331 29.9856 33.8357C29.9813 34.3382 29.7797 34.8189 29.4243 35.1743C29.069 35.5297 28.5882 35.7313 28.0857 35.7356C27.5831 35.74 27.099 35.5468 26.7375 35.1977L15.8949 24.3551Z" fill="white"/>
</g>
</svg>
