<svg width="46" height="46" viewBox="0 0 46 46" fill="none" xmlns="http://www.w3.org/2000/svg">
<g id="Group">
<path id="Vector" fill-rule="evenodd" clip-rule="evenodd" d="M30.1051 21.6449C30.4644 22.0043 30.6663 22.4917 30.6663 23C30.6663 23.5082 30.4644 23.9956 30.1051 24.3551L19.2625 35.1976C19.0857 35.3807 18.8742 35.5267 18.6404 35.6272C18.4065 35.7276 18.155 35.7805 17.9005 35.7827C17.646 35.7849 17.3936 35.7364 17.1581 35.6401C16.9225 35.5437 16.7085 35.4014 16.5286 35.2214C16.3486 35.0414 16.2063 34.8274 16.1099 34.5919C16.0135 34.3563 15.9651 34.104 15.9673 33.8495C15.9695 33.595 16.0224 33.3435 16.1228 33.1096C16.2233 32.8758 16.3693 32.6643 16.5523 32.4875L26.0398 23L16.5523 13.5125C16.2032 13.151 16.01 12.6668 16.0144 12.1643C16.0187 11.6617 16.2203 11.181 16.5757 10.8257C16.931 10.4703 17.4118 10.2687 17.9143 10.2644C18.4169 10.26 18.901 10.4532 19.2625 10.8023L30.1051 21.6449Z" fill="white"/>
</g>
</svg>
