<svg width="61" height="72" viewBox="0 0 61 72" fill="none" xmlns="http://www.w3.org/2000/svg">
<path d="M57.8459 30.3558L10.0813 0.974518C9.07966 0.360417 7.93388 0.0245842 6.76096 0.00129913C5.58805 -0.0219859 4.42998 0.26811 3.40498 0.841978C2.37997 1.41584 1.52473 2.25293 0.926533 3.26781C0.328339 4.28268 0.00861702 5.439 0 6.61873V65.3813C0.00861702 66.561 0.328339 67.7173 0.926533 68.7322C1.52473 69.7471 2.37997 70.5842 3.40498 71.158C4.42998 71.7319 5.58805 72.022 6.76096 71.9987C7.93388 71.9754 9.07966 71.6396 10.0813 71.0255L57.8459 41.6442C58.809 41.0546 59.605 40.2257 60.1574 39.2372C60.7098 38.2487 61 37.1339 61 36C61 34.8661 60.7098 33.7513 60.1574 32.7628C59.605 31.7743 58.809 30.9454 57.8459 30.3558ZM7.95634 62.9542V9.04578L51.7692 36L7.95634 62.9542Z" fill="white"/>
</svg>
