<svg width="61" height="61" viewBox="0 0 61 61" fill="none" xmlns="http://www.w3.org/2000/svg">
<path d="M54.6116 0H6.38842C4.69492 0.00263036 3.07152 0.676539 1.87403 1.87403C0.676539 3.07152 0.00263036 4.69492 0 6.38842V54.6116C0.00263036 56.3051 0.676539 57.9285 1.87403 59.126C3.07152 60.3235 4.69492 60.9974 6.38842 61H54.6116C56.3051 60.9974 57.9285 60.3235 59.126 59.126C60.3235 57.9285 60.9974 56.3051 61 54.6116V6.38842C60.9974 4.69492 60.3235 3.07152 59.126 1.87403C57.9285 0.676539 56.3051 0.00263036 54.6116 0ZM53.0435 53.0435H7.95652V7.95652H53.0435V53.0435Z" fill="white"/>
</svg>
